<?xml version="1.0" encoding="utf-8"?>
<!-- Generator: Adobe Illustrator 16.0.0, SVG Export Plug-In . SVG Version: 6.00 Build 0)  -->
<!DOCTYPE svg PUBLIC "-//W3C//DTD SVG 1.1//EN" "http://www.w3.org/Graphics/SVG/1.1/DTD/svg11.dtd">
<svg version="1.1" id="Layer_1" xmlns="http://www.w3.org/2000/svg" xmlns:xlink="http://www.w3.org/1999/xlink" x="0px" y="0px"
	 width="1920px" height="1080px" viewBox="-464.75 621.25 1920 1080" enable-background="new -464.75 621.25 1920 1080"
	 xml:space="preserve">
<g transform="translate(0,1440)">
	
		<rect x="-464.75" y="-823.692" fill="#FFCCAA" stroke="#E2E6D5" stroke-width="0.8024" stroke-linecap="round" stroke-linejoin="round" width="1916.321" height="1085.069"/>
</g>
<g transform="translate(0,1440)">
	
		<linearGradient id="SVGID_1_" gradientUnits="userSpaceOnUse" x1="158.311" y1="106.4111" x2="147.0246" y2="794.1345" gradientTransform="matrix(1.6926 0 0 -1.6926 235.5648 487.5444)">
		<stop  offset="0" style="stop-color:#FF2A2A"/>
		<stop  offset="1" style="stop-color:#FF2A2A;stop-opacity:0"/>
	</linearGradient>
	<rect x="-460.579" y="-831.5" fill="url(#SVGID_1_)" width="1908.769" height="1092.708"/>
</g>
<path fill="#FF70A8" fill-opacity="0.65" d="M-463.966,614.005v1085.237H159.78c187.341-121.218,311.361-332.137,311.361-572.136
	c0-204.757-90.31-388.368-233.188-513.152h-701.958L-463.966,614.005z"/>
<linearGradient id="SVGID_2_" gradientUnits="userSpaceOnUse" x1="-146.7529" y1="2288.1338" x2="-148.6253" y2="2027.9999" gradientTransform="matrix(1.0911 0 0 -1.1556 692.3636 3344.989)">
	<stop  offset="0" style="stop-color:#FFE2AA"/>
	<stop  offset="1" style="stop-color:#FFE2AA;stop-opacity:0"/>
</linearGradient>
<path fill="url(#SVGID_2_)" d="M223.08,716.778c-38.532,0-69.54,22.97-69.54,51.515s31.007,51.515,69.54,51.515h105.497
	c-9.445,10.75-14.906,23.586-14.906,37.422c0,37.971,41.25,68.526,92.502,68.526h410.733c51.255,0,92.504-30.557,92.504-68.526
	c0-37.971-41.252-68.527-92.504-68.527h-73.193c3.62-6.248,5.626-13.155,5.626-20.408c0-28.545-31.007-51.516-69.54-51.516H223.074
	L223.08,716.778z"/>
<linearGradient id="SVGID_3_" gradientUnits="userSpaceOnUse" x1="54.3901" y1="1843.9961" x2="67.4439" y2="1525.127" gradientTransform="matrix(1.6926 0 0 -1.6926 65.7933 4396.3857)">
	<stop  offset="0" style="stop-color:#FFE8AA"/>
	<stop  offset="1" style="stop-color:#FFE8AA;stop-opacity:0"/>
</linearGradient>
<path fill="url(#SVGID_3_)" d="M-92.848,1275.746c-61.641,0-111.243,38.27-111.243,85.855c0,17.341,6.565,33.396,17.924,46.868
	h-126.868c-46.338,0-83.624,28.811-83.624,64.583c0,35.776,37.288,64.584,83.624,64.584h104.268
	c-13.675,12.798-22.179,31.039-22.179,51.332c0,38.907,31.327,70.234,70.234,70.234h823.781c38.906,0,70.235-31.327,70.235-70.234
	c0-38.906-31.327-70.234-70.235-70.234h-367.7c15.115-11.668,24.481-27.795,24.481-45.684c0-9.091-2.412-17.766-6.765-25.597h88.018
	c61.641,0,111.244-38.27,111.244-85.855c0-47.587-49.606-85.854-111.244-85.854H-92.837L-92.848,1275.746z"/>
</svg>
